<svg width="174" height="182" viewBox="0 0 174 182" fill="none" xmlns="http://www.w3.org/2000/svg">
<circle cx="87" cy="87" r="87" fill="#F6F767"/>
<mask id="mask0_208_105" style="mask-type:luminance" maskUnits="userSpaceOnUse" x="20" y="18" width="127" height="164">
<path d="M20.2505 18H146.014V181.818H20.2505V18Z" fill="white"/>
</mask>
<g mask="url(#mask0_208_105)">
<path d="M145.865 29.6491C145.824 28.7092 145.801 27.776 145.75 26.8361C145.624 24.3951 145.543 21.9552 145.451 19.5142C145.412 18.4606 145.527 18.3741 144.26 18.3741C106.055 18.3796 67.8515 18.3796 29.6479 18.3741C29.2869 18.3741 28.9204 18.4431 28.5538 18.2658C28.2781 18.128 28.0483 18.3741 27.8656 18.5405C27.7102 18.6838 27.7453 18.9015 27.9116 19.0678C28.0483 19.2046 28.0199 19.3829 28.0144 19.5602C27.9455 20.8206 27.8766 22.0865 27.8197 23.3469C27.7562 24.7846 27.7168 26.2234 27.6304 27.6611C27.6019 28.183 27.5669 28.7038 27.5505 29.2311C27.5439 29.5572 27.7168 29.7126 28.0199 29.729C28.1523 29.741 28.2836 29.7355 28.416 29.7355C30.1184 29.7465 31.8263 29.7519 33.5299 29.764C34.2115 29.7695 34.3833 29.9533 34.4982 30.6174C34.7214 31.8669 34.8133 33.1208 34.9227 34.3812C35.158 37.1603 35.4271 39.9393 35.6788 42.7173C35.868 44.8257 36.0409 46.9286 36.2291 49.037C36.4764 51.8161 36.7401 54.594 36.9862 57.3731C37.1755 59.499 37.3473 61.6304 37.5421 63.7552C37.7893 66.4883 38.0464 69.2269 38.2937 71.96C38.4425 73.6329 38.5738 75.3058 38.7237 76.9787C38.9294 79.2819 39.1417 81.5795 39.3539 83.8827C39.5148 85.618 39.6745 87.3543 39.8299 89.0896C39.8933 89.8172 39.9447 90.5514 40.0071 91.3763C39.4053 90.9463 38.8441 90.6203 38.2587 90.3271C36.379 89.3817 34.4183 88.6892 32.3537 88.2482C31.0812 87.9791 29.8143 87.9156 28.5243 88.1673C27.7453 88.3172 27.0166 88.5918 26.2769 88.85C25.813 89.0097 25.6982 89.1356 25.847 89.5776C26.1457 90.4649 26.5122 91.3249 27.0341 92.1149C28.6621 94.5668 30.869 96.3261 33.5354 97.5297C35.3068 98.3317 37.158 98.7836 39.1187 98.6927C39.2161 98.6862 39.3364 98.6348 39.4053 98.7606C39.3944 98.8065 39.3944 98.858 39.3714 98.8809C39.285 98.9783 39.1876 99.0702 39.0957 99.1621C37.3134 100.909 35.6219 102.726 34.1142 104.719C28.9379 111.577 25.1194 119.129 22.6652 127.361C21.0777 132.678 20.1717 138.104 20.2866 143.679C20.338 146.079 20.4704 148.473 20.8709 150.84C21.6849 155.635 23.302 160.15 25.6642 164.4C27.1774 167.116 28.9379 169.66 31.1392 171.86C33.3866 174.112 35.9424 175.974 38.7346 177.509C41.017 178.764 43.4755 179.561 45.9756 180.248C46.8531 180.488 47.7754 180.58 48.6759 180.741C51.6453 181.267 54.6432 181.531 57.6532 181.628C62.7321 181.789 67.7716 181.4 72.7597 180.448C75.7172 179.881 78.5892 179.005 81.2841 177.635C81.7709 177.389 82.2699 177.148 82.7053 176.827C84.9362 175.183 86.5577 173.058 87.6355 170.508C88.6683 168.079 89.2471 165.54 89.5513 162.934C89.6486 162.069 89.7055 161.204 89.7854 160.339C90.3358 160.259 104.45 160.27 104.995 160.344C107.357 169.247 115.566 175.029 124.55 174.386C132.931 173.786 139.748 167.856 141.588 159.657C141.983 157.881 142.115 156.076 141.972 154.26C141.829 152.449 141.445 150.686 140.797 148.983C140.137 147.259 139.266 145.655 138.119 144.205C136.996 142.778 135.711 141.535 134.227 140.459C132.754 139.387 131.154 138.602 129.526 137.926C129.452 137.766 129.475 137.634 129.486 137.502C129.606 136.465 129.732 135.423 129.847 134.385C130.036 132.718 130.213 131.051 130.403 129.384C130.643 127.287 130.891 125.184 131.131 123.087C131.372 120.945 131.601 118.796 131.848 116.654C132.089 114.51 132.34 112.368 132.588 110.225C132.822 108.123 133.051 106.026 133.292 103.923C133.538 101.757 133.791 99.5921 134.037 97.4323C134.232 95.7189 134.416 94.011 134.611 92.2987C134.892 89.8063 135.184 87.3193 135.465 84.8335C135.665 83.0796 135.849 81.3213 136.049 79.5685C136.331 77.0991 136.623 74.6351 136.904 72.1657C137.145 70.0234 137.374 67.8745 137.615 65.7322C137.941 62.8733 138.28 60.0198 138.606 57.1609C138.893 54.675 139.157 52.1826 139.45 49.6957C139.811 46.6244 140.2 43.5543 140.567 40.4831C140.94 37.3671 141.301 34.2499 141.668 31.1327C141.749 30.4566 141.862 30.3537 142.533 30.3592C143.405 30.3658 144.283 30.3942 145.154 30.3942C145.784 30.3822 145.888 30.2793 145.865 29.6491ZM57.0744 88.9244C56.1575 89.3653 55.2745 89.8632 54.431 90.4474C53.9495 90.8085 53.4681 91.1586 52.9922 91.559C53.4681 91.1641 53.9495 90.8085 54.431 90.4474C55.2745 89.8632 56.1575 89.3653 57.0744 88.9244C57.4409 88.7461 57.814 88.5863 58.186 88.4255C57.814 88.5797 57.4409 88.7461 57.0744 88.9244ZM44.1987 79.1615C44.1692 79.1725 44.1528 79.19 44.1352 79.2075C44.1528 79.19 44.1757 79.179 44.1987 79.1615C44.342 78.9722 44.4854 78.783 44.6287 78.5937C44.4908 78.783 44.342 78.9722 44.1987 79.1615Z" fill="#646273"/>
</g>
<path d="M40.3568 85.7018C40.1907 83.9041 40.0125 82.1065 39.8529 80.3077C39.7436 79.071 39.6573 77.8343 39.549 76.5975C39.4397 75.4068 39.3086 74.216 39.1993 73.0252C39.0911 71.8344 39.0047 70.637 38.8965 69.4462C38.7817 68.192 38.6549 66.9323 38.5412 65.6781C38.4319 64.4873 38.3467 63.2911 38.2428 62.1003C38.1281 60.846 38.0024 59.5918 37.8876 58.3321C37.7848 57.1643 37.6985 55.9899 37.5903 54.8166C37.4755 53.5394 37.3443 52.2634 37.2296 50.9862C37.1257 49.8348 37.0405 48.6844 36.9377 47.5395C36.8229 46.2394 36.6907 44.9393 36.5704 43.6402C36.4677 42.4888 36.3879 41.3439 36.284 40.1925C36.1693 38.8934 36.0042 37.5988 35.9233 36.2932C35.849 35.0739 35.6949 33.8656 35.6195 32.6464C35.5801 31.9936 35.4369 31.3517 35.4938 30.6935C36.2786 30.6935 37.0689 30.711 37.8537 30.6825C38.5117 30.6541 39.1534 30.8028 39.8005 30.8597C40.8148 30.9395 41.8226 31.0948 42.8359 31.226C43.6951 31.3353 44.5542 31.472 45.4134 31.5759C46.3184 31.6842 47.2235 31.776 48.1286 31.8788C48.9702 31.9761 49.8064 32.0789 50.6481 32.1883C51.5302 32.2965 52.4068 32.4343 53.2944 32.5261C54.1765 32.618 55.0586 32.7547 55.9462 32.829C56.8283 32.9034 57.7049 33.0696 58.586 33.1789C59.4451 33.2872 60.3163 33.3386 61.17 33.4764C62.1548 33.6305 63.1451 33.7169 64.1366 33.8427C64.9553 33.9455 65.774 34.0373 66.5872 34.1412C67.4693 34.2549 68.346 34.3872 69.2281 34.4955C70.0872 34.6048 70.9519 34.6847 71.811 34.7874C72.7784 34.9023 73.7468 35.028 74.7142 35.1538C75.5963 35.2686 76.4729 35.3889 77.3551 35.4982C78.2142 35.6065 79.0788 35.7038 79.938 35.8066C80.8201 35.9104 81.7077 36.0012 82.5898 36.1105C83.4489 36.2188 84.3081 36.3511 85.1672 36.4539C86.0264 36.5567 86.891 36.6431 87.7556 36.7404C88.7689 36.8607 89.7778 36.9919 90.7856 37.1122C91.5814 37.2095 92.3771 37.3013 93.174 37.4041C94.1413 37.5244 95.1098 37.6502 96.0772 37.7704C96.9134 37.8743 97.7561 37.9716 98.5978 38.0799C99.5028 38.1947 100.401 38.315 101.306 38.4232C102.189 38.5326 103.071 38.6244 103.958 38.7327C104.863 38.842 105.763 38.9678 106.667 39.0826C107.503 39.1854 108.346 39.2773 109.187 39.38C110.132 39.4949 111.077 39.6206 112.022 39.7343C112.865 39.8382 113.701 39.9235 114.542 40.0328C115.465 40.1466 116.386 40.2789 117.314 40.3937C118.174 40.4965 119.038 40.5818 119.897 40.6856C120.843 40.7994 121.787 40.9262 122.733 41.052C123.592 41.1668 124.451 41.2871 125.309 41.3953C126.168 41.5036 127.034 41.602 127.893 41.7048C128.774 41.8076 129.663 41.8994 130.545 42.0077C131.466 42.1225 132.394 42.2482 133.317 42.363C134.175 42.4658 135.041 42.5522 135.9 42.6605C137.062 42.8037 138.213 43.0497 139.393 43.0213C139.37 44.0689 139.176 45.1 139.084 46.1366C138.998 47.1098 138.866 48.083 138.752 49.0507C138.591 50.4307 138.419 51.8107 138.259 53.1961C138.116 54.4044 137.984 55.6181 137.836 56.8264C137.601 58.7499 137.468 60.6798 137.205 62.5978C137.022 63.9318 136.919 65.2779 136.77 66.6229C136.57 68.3757 136.358 70.122 136.157 71.8683C136.008 73.1848 135.877 74.5079 135.727 75.8245C135.573 77.1651 135.407 78.4991 135.253 79.8386C135.103 81.1322 134.972 82.4323 134.823 83.7325C134.663 85.1354 134.496 86.5372 134.336 87.9467C134.233 88.8565 134.141 89.7619 134.038 90.6717C133.878 92.0746 133.712 93.4775 133.551 94.8804C133.448 95.7902 133.356 96.6956 133.254 97.6054C133.093 99.0083 132.927 100.411 132.767 101.82C132.663 102.748 132.571 103.681 132.463 104.608C132.303 106.034 132.131 107.46 131.965 108.886C131.816 110.179 131.689 111.479 131.541 112.78C131.387 114.142 131.22 115.499 131.065 116.861C130.962 117.767 130.865 118.677 130.762 119.588C130.602 121.013 130.43 122.438 130.269 123.864C130.126 125.141 129.989 126.418 129.845 127.689C129.686 129.115 129.513 130.541 129.353 131.967C129.25 132.894 129.159 133.828 129.055 134.755C128.952 135.682 128.838 136.604 128.723 137.577C121.964 135.815 115.842 137.022 110.665 141.694C105.476 146.379 103.695 152.356 104.766 159.239C104.708 159.336 104.6 159.336 104.491 159.342C100.934 159.393 97.3779 159.491 93.8211 159.434C93.8156 159.107 93.8265 158.774 93.7926 158.454C93.6779 157.44 93.5576 156.433 93.4199 155.425C93.2428 154.137 93.0996 152.843 92.8592 151.566C92.3203 148.72 91.4961 145.954 90.5965 143.207C89.8456 140.91 88.8782 138.695 87.8933 136.484C86.9708 134.412 85.9061 132.413 84.8459 130.403C84.2961 129.361 83.7408 128.324 83.1625 127.305C82.2061 125.622 81.2212 123.95 80.2648 122.267C79.0504 120.125 77.7901 118.013 76.45 115.952C75.0749 113.833 73.6605 111.754 72.046 109.802C70.8371 108.342 69.5484 106.956 68.2542 105.582C66.9709 104.219 65.551 102.989 64.1825 101.711C62.9167 100.537 61.5766 99.4665 60.1501 98.5108C59.5828 98.127 58.9816 97.7946 58.3455 97.4053C59.1587 96.8728 59.9097 96.3577 60.5852 95.7454C61.2673 95.1319 61.9941 94.5765 62.6238 93.9127C63.0533 93.4546 63.5124 93.0084 63.8043 92.4409C64.0447 91.9827 63.9584 91.7651 63.4545 91.611C62.9397 91.4502 62.4062 91.3365 61.851 91.3474C61.6214 91.3529 61.3645 91.4163 61.17 91.2162C61.4039 90.6312 61.7253 90.0877 61.8848 89.4754C61.9941 89.0632 61.9996 88.6564 61.9603 88.2496C61.9198 87.8144 61.6968 87.505 61.1405 87.5629C60.3272 87.6482 59.5828 87.9238 58.8385 88.2103C57.3147 88.7996 55.8664 89.5268 54.5197 90.4541C54.2399 90.1621 54.4913 89.8592 54.5656 89.6066C55.2248 87.3169 55.5571 84.9922 55.4423 82.604C55.4193 82.1065 55.4762 81.5958 55.4139 81.1038C55.2412 79.7522 55.0925 78.4018 54.7777 77.0732C54.4858 75.8474 54.1874 74.6282 53.5863 73.5063C53.1512 72.7037 52.8135 72.5725 52.0177 72.9672C51.3531 73.2942 50.694 73.6255 50.036 73.9634C49.8469 74.0607 49.6173 74.1186 49.543 74.3592C48.7702 74.2444 48.1854 74.5363 47.6476 75.1028C46.5993 76.2137 45.6604 77.4045 44.7433 78.6128C44.6001 78.802 44.4569 78.9912 44.3137 79.1803C44.211 79.2317 44.176 79.329 44.176 79.4373C44.1367 79.4898 44.0962 79.5346 44.0558 79.5871C44.0328 79.6844 44.0044 79.7752 43.9126 79.8331C43.6612 79.8616 43.6492 80.0387 43.6557 80.2279C43.3628 80.2508 43.2884 80.5198 43.1748 80.709C42.2631 82.1808 41.3985 83.6745 40.7339 85.2721C40.6203 85.4274 40.5689 85.622 40.3568 85.7018ZM97.2861 99.6327C97.4861 99.6786 97.6982 99.7245 97.9102 99.73C98.3967 99.7475 98.9006 99.6217 99.3596 99.9367C99.4733 100.016 99.7368 99.9935 99.8636 99.9072C100.161 99.7016 100.482 99.7584 100.802 99.7191C101.616 99.6152 102.457 99.5583 103.214 99.2325C103.947 98.9176 104.703 98.654 105.39 98.2352C106.771 97.4107 107.991 96.4091 109.062 95.1954C109.628 94.5535 110.064 93.8384 110.538 93.1451C111.072 92.3665 111.564 91.5246 111.834 90.6312C112.091 89.7783 112.395 88.9308 112.63 88.067C113.001 86.7034 113.088 85.3235 113.11 83.9435C113.139 82.3405 113.008 80.7374 112.652 79.1628C112.543 78.6817 112.463 78.1842 112.315 77.714C112.103 77.0382 111.736 76.4204 111.581 75.7217C111.547 75.5784 111.501 75.4122 111.41 75.304C110.945 74.7485 110.722 74.0607 110.361 73.4483C109.663 72.2685 108.884 71.1641 107.927 70.1909C107.429 69.6813 106.942 69.561 106.347 69.8924C105.613 70.2991 104.858 70.672 104.13 71.0842C102.876 71.7819 101.639 72.509 100.385 73.2132C99.1246 73.9185 97.9048 74.708 96.5701 75.2755C96.2892 75.3958 95.9624 75.5905 96.0149 75.9961C96.0662 76.3799 96.1285 76.7408 96.5581 76.9584C97.0456 77.199 97.5375 77.468 97.9277 77.8288C98.8098 78.6533 99.6624 79.5182 100.401 80.4739C101.003 81.259 101.587 82.0605 102.04 82.9474C102.326 83.5028 102.555 84.0868 102.807 84.6597C103.122 85.3639 103.329 86.125 103.191 86.967C101.025 87.5913 98.8262 87.6941 96.5188 87.6318C96.5188 86.6575 96.5067 85.7532 96.5242 84.8434C96.5352 84.4192 96.3012 84.0015 95.923 83.8867C95.5733 83.7839 95.3557 83.9041 95.1043 84.3448C94.5545 85.295 94.0047 86.2453 93.4549 87.1966C93.2133 87.6198 92.9335 88.0265 92.7269 88.4727C92.3028 89.3945 91.7246 90.231 91.2152 91.0959C90.7277 91.9138 90.344 92.7843 89.8237 93.5858C89.6117 93.9072 89.7603 94.2156 90.1385 94.3479C90.3331 94.4168 90.5167 94.4912 90.614 94.6683C90.9113 95.2238 91.3868 95.6306 91.753 96.1281C92.5782 97.262 93.4319 98.3785 94.2386 99.5299C94.7425 100.252 95.4016 100.858 95.7624 101.676C95.8596 101.906 96.0717 101.98 96.2433 102.095C96.5242 102.29 97.0172 102.072 97.0511 101.729C97.0915 101.299 97.2402 100.881 97.2118 100.434C97.1888 100.183 97.1374 99.9137 97.2861 99.6327ZM76.6271 87.9008C76.0379 86.5952 76.2205 85.3355 76.6271 84.1502C76.8675 83.4514 77.1026 82.639 77.8819 82.2268C78.5465 82.4608 79.1532 82.8446 79.8516 82.9933C80.2583 83.0851 80.608 82.9135 80.6824 82.5122C80.7283 82.2781 80.7337 82.031 80.6255 81.808C80.0243 80.5603 79.6571 79.2263 79.1302 77.9436C79.022 77.6856 78.9466 77.4111 78.8558 77.1476C78.3804 75.8595 77.8415 74.5932 77.4239 73.2821C77.3201 72.9563 77.1769 72.6009 76.7309 72.6129C76.227 72.6239 75.734 72.4981 75.2411 72.4861C73.5238 72.4467 71.8055 72.2805 70.0807 72.3264C69.8009 72.3319 69.5145 72.298 69.2335 72.2805C68.0366 72.2062 66.8397 72.1657 65.6373 72.2116C65.1324 72.2291 64.9269 72.6589 65.1903 73.0766C65.293 73.2362 65.4187 73.4308 65.5794 73.4997C66.1981 73.7523 66.5643 74.3078 67.0343 74.6227C66.9195 74.989 66.8343 75.3324 66.7654 75.6528C66.6681 76.1 66.4386 76.5002 66.3981 76.9529C66.3642 77.3652 66.2899 77.7544 66.0888 78.1328C65.9685 78.3493 65.8942 78.6358 65.9117 78.8818C65.9522 79.6899 65.6887 80.4794 65.7631 81.2875C65.7685 81.3728 65.774 81.4701 65.7401 81.5444C65.5106 82.0256 65.5565 82.5471 65.6483 83.0217C65.7685 83.6286 65.7171 84.23 65.7794 84.8314C65.7969 85.0031 65.7685 85.1802 65.809 85.3464C66.0265 86.2682 66.267 87.1846 66.479 88.1064C66.6506 88.8685 67.0398 89.5498 67.2868 90.2824C67.6125 91.2392 68.1514 92.0571 68.6837 92.8881C69.1013 93.5409 69.6118 94.1183 70.0927 94.7252C70.5103 95.2522 70.9923 95.7224 71.4787 96.1631C71.9597 96.6038 72.4985 97.0051 73.0418 97.3943C74.0048 98.081 75.0301 98.6475 76.0947 99.1341C76.9309 99.5124 77.8185 99.7989 78.7127 100.011C79.7828 100.268 80.8824 100.429 81.982 100.498C83.4544 100.589 84.9202 100.48 86.3696 100.234C86.9763 100.131 87.6245 100.131 88.1448 99.6895C88.3284 99.5354 88.4257 99.3867 88.4257 99.1461C88.4311 98.3675 88.4716 97.589 88.5284 96.8039C88.6377 95.355 88.5055 93.8952 88.6607 92.4354C88.747 91.6394 88.6782 90.8204 88.6891 90.0134C88.6946 89.6012 88.6782 89.1998 88.7984 88.7876C88.8902 88.4617 88.8607 88.1009 88.6836 87.775C88.5404 87.5115 88.3568 87.4197 88.042 87.4711C87.1719 87.6088 86.3357 87.9238 85.4361 87.9697C84.812 87.9981 84.1933 88.1698 83.5692 88.1807C82.0225 88.2157 80.4703 88.2387 78.9247 88.1753C78.1508 88.1414 77.3605 88.1239 76.6271 87.9008ZM102.189 61.7733C101.363 60.5596 100.545 59.4202 99.5488 58.4065C98.5398 57.3764 97.3429 56.6198 96.1285 55.8871C94.7775 55.0747 93.2658 54.611 91.7595 54.2097C90.6938 53.9287 89.5767 53.803 88.4661 53.78C87.5556 53.7636 86.6451 53.792 85.7334 53.8839C84.5431 54.0031 83.3855 54.2666 82.2684 54.6395C81.0485 55.0452 79.8582 55.5438 78.7411 56.2305C77.9278 56.7291 77.1485 57.2441 76.4609 57.9024C75.557 58.7673 74.7437 59.7066 74.1185 60.8001C73.4375 62.0029 72.9216 63.2681 72.504 64.5846C72.2176 65.49 71.8799 66.3659 71.7706 67.3216C71.6962 67.9799 71.6908 68.0717 72.1772 68.3866C73.2025 69.0515 74.2278 69.7207 75.2531 70.3855C76.908 71.4615 78.5574 72.555 80.2298 73.6091C80.7851 73.9579 81.2781 74.4565 81.9886 74.5079C82.51 74.158 82.7614 73.6944 82.6696 73.0645C82.6532 72.9388 82.675 72.801 82.71 72.6807C83.0368 71.4276 83.368 70.1734 83.9069 68.9935C84.3879 67.923 84.9202 66.8755 85.5105 65.8563C86.1007 64.8372 86.7937 63.9089 87.5151 62.9936C87.8649 62.5464 88.2595 62.1396 88.7066 61.7963C89.0618 61.5273 89.216 61.5502 89.4739 61.8652C89.898 62.3747 90.3047 62.9018 90.7113 63.4223C91.5245 64.4709 92.1596 65.6212 92.8756 66.7267C93.2538 67.3107 93.3631 67.7568 92.8012 68.2379C92.7728 68.2609 92.7783 68.3243 92.7619 68.3582C92.2285 69.2396 91.7759 70.1679 91.1288 70.9869C90.7627 71.4506 90.9627 72.0509 91.4961 72.1777C91.742 72.2346 92.0689 72.275 92.2634 72.1602C92.8297 71.8398 93.4549 71.9317 94.0386 71.8628C94.9611 71.7589 95.8826 71.6102 96.8106 71.5129C98.0195 71.3871 99.2165 71.198 100.43 71.1356C100.602 71.1236 100.78 71.1641 100.935 71.0493C101.215 70.8492 101.496 70.8666 101.782 71.0668C102.04 71.2439 102.234 71.1007 102.395 70.8896C102.561 70.672 102.618 70.4194 102.613 70.1504C102.607 69.9099 102.629 69.6923 102.767 69.4692C102.887 69.2745 102.91 69.0165 102.973 68.7879C103.111 68.2893 103.179 67.7688 103.277 67.2647C103.426 66.5026 103.564 65.7415 103.866 65.0253C103.907 64.928 103.872 64.8077 103.889 64.6994C104.067 63.8345 104.227 62.9641 104.457 62.1112C104.531 61.8313 104.559 61.6016 104.377 61.384C104.193 61.1719 103.964 61.2353 103.718 61.2922C103.196 61.407 102.749 61.7044 102.189 61.7733ZM29.131 29.0051C35.0412 29.0729 40.958 29.0161 46.8737 29.1134C54.9493 29.2392 63.0249 29.1243 71.1005 29.2446C79.1761 29.3715 87.2517 29.2512 95.3273 29.3769C103.42 29.4972 111.518 29.3944 119.616 29.5027C127.171 29.6055 134.726 29.5486 142.28 29.5661C142.629 29.5661 142.973 29.5945 143.322 29.6284C143.877 29.6864 144.444 29.7028 144.994 29.6C145.126 28.6377 144.754 19.9862 144.548 19.2021C106.014 19.2021 67.4693 19.2021 28.873 19.2021C28.7189 22.4662 28.5692 25.6952 28.415 28.8958C28.696 29.05 28.9135 29.0051 29.131 29.0051Z" fill="#85D16F"/>
<path d="M61.2452 181.079C58.7149 181.13 56.1956 180.992 53.6762 180.791C51.7048 180.637 49.7619 180.321 47.8366 179.856C46.863 179.62 45.8542 179.517 44.8739 179.292C44.1819 179.138 43.5021 178.896 42.8277 178.667C39.2544 177.433 36.0893 175.503 33.2817 172.983C27.7534 168.015 24.244 161.832 22.2659 154.734C21.3033 151.283 20.8478 147.758 20.8137 144.175C20.7961 142.378 20.773 140.586 20.9402 138.801C21.136 136.711 21.4474 134.632 21.9028 132.582C23.9029 123.573 27.4949 115.247 32.6821 107.604C34.5733 104.825 36.7064 102.247 39.1389 99.9105C39.5657 99.5026 39.9288 99.3074 40.568 99.4675C41.854 99.7954 43.1907 99.6858 44.5054 99.6287C47.2261 99.5081 49.9181 99.1462 52.5354 98.337C52.9787 98.1988 53.4232 98.0618 53.8093 97.8085C54.1031 97.6187 54.3275 97.6933 54.5871 97.86C55.8787 98.6934 57.101 99.6232 58.2759 100.617C62.5423 104.199 66.318 108.253 69.8803 112.514C73.1026 116.367 76.0939 120.392 78.7574 124.652C80.1931 126.943 81.4319 129.332 82.4924 131.807C83.0524 133.11 83.6399 134.403 84.2339 135.694C84.7697 136.86 85.1845 138.088 85.6223 139.3C86.937 142.923 88.0724 146.599 88.6664 150.417C88.9602 152.317 89.1736 154.229 89.266 156.153C89.3694 158.277 89.3408 160.396 89.1098 162.51C88.7236 166.063 87.9117 169.491 85.9975 172.575C85.2879 173.717 84.4474 174.75 83.3747 175.578C83.1668 175.738 82.9369 175.871 82.7179 176.008C79.8642 177.805 76.7287 178.891 73.4536 179.62C69.822 180.429 66.1508 180.871 62.4323 181.004C62.0352 181.027 61.6369 181.056 61.2452 181.079ZM27.3794 151.111C27.3739 151.904 27.4487 152.949 27.6445 153.983C28.7854 159.96 31.7602 164.742 36.9199 168.102C37.1498 168.251 37.2939 168.418 37.3863 168.693C37.8825 170.244 38.7923 171.495 40.2104 172.351C40.9079 172.77 41.6582 173.086 42.436 173.309C43.7848 173.705 45.1853 173.844 46.5693 174.085C46.9092 174.142 47.1975 174.228 47.4274 174.504C47.7739 174.912 48.2294 175.176 48.7014 175.417C49.3757 175.767 50.1139 175.887 50.8466 176.003C51.8434 176.157 52.8522 176.255 53.861 176.134C55.1229 175.985 56.3804 175.818 57.6423 175.653C58.2077 175.578 58.7721 175.492 59.331 175.405C59.5796 175.366 59.7402 175.227 59.694 174.958C59.6544 174.722 59.452 174.665 59.2452 174.665C59.1814 174.665 59.1121 174.676 59.0494 174.688C57.7919 174.86 56.5245 174.998 55.2736 175.21C53.5838 175.497 51.9072 175.492 50.2405 175.135C49.2668 174.929 48.3328 174.608 47.7849 173.666C47.6991 173.517 47.5198 173.465 47.3361 173.436C46.2293 173.27 45.1281 173.103 44.0268 172.914C42.8277 172.713 41.6802 172.357 40.6318 171.725C39.2885 170.916 38.4293 169.743 38.0717 168.223C38.0035 167.93 37.8418 167.774 37.6053 167.637C36.6943 167.108 35.8241 166.505 35.0518 165.788C29.99 161.068 27.5697 155.331 28.3299 148.378C28.342 148.246 28.3706 148.119 28.3651 147.988C28.353 147.787 28.232 147.66 28.0362 147.637C27.8689 147.614 27.7314 147.706 27.6786 147.862C27.6159 148.045 27.5807 148.24 27.5466 148.435C27.408 149.239 27.3794 150.043 27.3794 151.111ZM81.1095 149.929C81.1095 149.446 81.1326 148.964 81.104 148.487C80.9654 146.052 80.3658 143.75 79.1667 141.614C79.0566 141.425 78.9477 141.235 78.8091 141.063C78.6936 140.919 78.533 140.833 78.3482 140.948C78.1402 141.074 78.1237 141.258 78.2095 141.459C78.2447 141.539 78.2909 141.614 78.336 141.688C80.2272 144.922 80.6827 148.412 80.2162 152.065C79.8873 154.643 79.0742 157.077 77.8751 159.391C77.8179 159.506 77.7486 159.621 77.6969 159.742C77.6045 159.953 77.6562 160.132 77.8586 160.246C78.0478 160.356 78.2095 160.264 78.314 160.115C78.4516 159.919 78.5671 159.707 78.6771 159.494C80.181 156.474 81.0633 153.305 81.1095 149.929ZM83.9105 155.757C83.9105 155.636 83.8357 155.424 83.5651 155.401C83.2999 155.378 83.1844 155.573 83.1437 155.814C83.1096 156.009 83.092 156.204 83.0634 156.4C82.7234 158.736 81.9621 160.895 80.3944 162.716C80.1403 163.014 79.939 163.359 79.6276 163.612C79.4208 163.778 79.4087 163.984 79.5649 164.186C79.72 164.387 79.9621 164.375 80.1986 164.169C80.2327 164.14 80.2558 164.105 80.2844 164.071C81.6915 162.446 82.8621 160.695 83.3923 158.582C83.6223 157.686 83.8302 156.795 83.9105 155.757ZM60.2188 88.2947C59.4641 88.5239 58.7314 88.8288 58.0108 89.1446C56.0283 90.0163 54.212 91.148 52.6674 92.681C52.4199 92.9277 52.2064 93.2095 51.9699 93.4683C51.8203 93.6284 51.6355 93.692 51.4396 93.5659C51.2614 93.4507 51.301 93.2841 51.3538 93.0998C51.9699 90.8552 52.2636 88.5809 52.0975 86.2332C51.9765 84.5796 51.9182 82.914 51.6476 81.2779C51.3934 79.7679 51.0942 78.269 50.6101 76.8105C50.466 76.3741 50.2933 75.9432 50.0567 75.5528C49.5837 74.783 48.7938 74.6854 48.1601 75.3115C47.6012 75.8686 47.0478 76.4311 46.5517 77.0463C43.5714 80.7548 41.4503 84.8373 41.041 89.6556C40.9607 90.614 40.9827 91.5734 41.3348 92.4913C41.4096 92.693 41.4679 92.8882 41.2545 93.0088C41.0465 93.1295 40.8221 93.0834 40.6725 92.8762C39.9805 91.9572 39.0234 91.3837 38.02 90.8782C36.1927 89.9538 34.296 89.2586 32.2849 88.8167C30.7227 88.4724 29.1946 88.4834 27.6676 88.8737C27.2529 88.9834 26.826 89.1095 26.5092 89.3683C26.4575 89.5514 26.5147 89.672 26.5609 89.7926C26.9239 90.7861 27.4432 91.705 28.111 92.5209C30.1001 94.9432 32.6018 96.6143 35.6228 97.4751C37.0409 97.883 38.4986 98.1067 39.975 97.7163C40.1301 97.6769 40.2742 97.7054 40.4238 97.7624C41.2137 98.0618 42.0444 98.1297 42.8794 98.1758C44.5747 98.2624 46.2579 98.1593 47.9357 97.9291C49.5892 97.6999 51.2207 97.372 52.8115 96.8731C52.9963 96.815 53.2153 96.7985 53.2956 96.5858C53.388 96.3446 53.5607 96.2645 53.8027 96.2579C54.0283 96.2524 54.2186 96.1209 54.4144 96.0342C56.4321 95.1153 58.0515 93.692 59.5213 92.0724C60.1154 91.4177 60.5819 90.6776 60.9218 89.8672C61.1352 89.3628 61.3146 88.8507 61.2331 88.2311C60.8536 88.139 60.5357 88.2026 60.2188 88.2947Z" fill="#B1D4E0"/>
<path d="M139.47 42.9218C138.287 42.9448 137.132 42.704 135.965 42.5606C135.103 42.4522 134.236 42.3657 133.374 42.2628C132.448 42.1478 131.518 42.0219 130.593 41.907C129.708 41.7986 128.823 41.7067 127.932 41.6038C127.07 41.5063 126.203 41.4023 125.341 41.2939C124.479 41.1856 123.617 41.0651 122.755 40.9502C121.808 40.8243 120.859 40.6973 119.912 40.5835C119.05 40.4795 118.181 40.3941 117.319 40.2912C116.395 40.1762 115.469 40.0438 114.538 39.9299C113.694 39.8259 112.855 39.735 112.01 39.631C111.062 39.5172 110.114 39.3913 109.166 39.2763C108.321 39.1734 107.482 39.0815 106.638 38.9786C105.73 38.8636 104.827 38.7432 103.921 38.6283C103.036 38.5199 102.151 38.4279 101.26 38.3185C100.352 38.2101 99.4495 38.0897 98.5415 37.9747C97.7026 37.8718 96.8582 37.7689 96.0138 37.6649C95.0422 37.5445 94.0717 37.4186 93.1 37.2982C92.3017 37.2007 91.5034 37.1033 90.7039 37.0059C89.6928 36.88 88.6762 36.7541 87.6651 36.6337C86.8032 36.5308 85.9347 36.4497 85.0672 36.3468C84.2053 36.2439 83.3433 36.1115 82.4814 36.0031C81.5975 35.8936 80.7125 35.8028 79.8209 35.6988C78.9601 35.6013 78.0916 35.4984 77.2296 35.39C76.3446 35.2806 75.4662 35.1547 74.5812 35.0452C73.6096 34.9193 72.6391 34.7934 71.6675 34.6785C70.8055 34.5756 69.9381 34.4891 69.0762 34.3862C68.1912 34.2778 67.3128 34.1453 66.4278 34.0315C65.6064 33.9275 64.7839 33.8355 63.968 33.7326C62.9745 33.6122 61.9799 33.5268 60.9918 33.3659C60.1353 33.2279 59.2624 33.1765 58.4005 33.0681C57.5155 32.9586 56.636 32.7868 55.7521 32.7178C54.8605 32.6433 53.9821 32.5065 53.0917 32.4145C52.2067 32.3226 51.3217 32.1912 50.4367 32.0763C49.5978 31.9668 48.7534 31.8639 47.9079 31.7665C47.001 31.6636 46.093 31.5771 45.185 31.4632C44.323 31.3537 43.4611 31.2224 42.5991 31.1129C41.588 30.9815 40.5769 30.8327 39.5538 30.7462C38.9046 30.6947 38.2608 30.5458 37.5996 30.5688C36.8133 30.6028 36.0259 30.5798 35.233 30.5798C35.2265 30.4254 35.21 30.2765 35.2901 30.1276C35.4622 30.0007 35.6695 30.0466 35.8592 30.0466C42.9785 30.0521 50.0913 29.9667 57.2106 30.0817C67.9795 30.2535 78.7528 30.0466 89.5206 30.2076C100.507 30.374 111.499 30.1725 122.485 30.3455C128.438 30.4364 134.391 30.3619 140.344 30.4364C140.539 30.4364 140.734 30.4024 140.981 30.5053C141.091 31.0209 140.901 31.5431 140.855 32.0708C140.78 32.9991 140.631 33.922 140.516 34.8503C140.396 35.8192 140.269 36.788 140.149 37.7569C140.045 38.6228 139.952 39.4822 139.855 40.3481C139.764 41.1451 139.666 41.942 139.562 42.739C139.574 42.8189 139.511 42.8704 139.47 42.9218ZM54.3089 96.8868C54.4701 97.1276 54.6653 97.2196 54.8441 97.3345C57.0044 98.7095 58.9751 100.344 60.8251 102.098C63.1522 104.31 65.4277 106.569 67.5485 108.993C68.9391 110.587 70.3296 112.181 71.662 113.82C73.5756 116.171 75.362 118.618 77.075 121.118C78.2813 122.883 79.4075 124.701 80.4767 126.552C81.4132 128.181 82.2807 129.843 82.9759 131.586C83.2117 132.17 83.3499 132.801 83.6306 133.362C84.6077 135.317 85.4752 137.312 86.234 139.358C87.2221 142.041 88.027 144.776 88.6126 147.568C88.8999 148.949 89.1642 150.336 89.32 151.741C89.4461 152.881 89.5777 154.028 89.6873 155.175C89.808 156.504 89.7904 157.829 89.808 159.159C89.808 159.244 89.8189 159.331 89.9692 159.451C91.1809 159.451 92.4684 159.451 93.7558 159.451C93.7493 159.124 93.7613 158.792 93.7262 158.47C93.6122 157.456 93.4915 156.447 93.3534 155.438C93.1746 154.148 93.031 152.853 92.7897 151.574C92.2502 148.726 91.4222 145.957 90.5208 143.205C89.7674 140.906 88.7969 138.688 87.8088 136.476C86.8832 134.4 85.814 132.4 84.7514 130.388C84.1998 129.345 83.6427 128.307 83.0626 127.286C82.103 125.601 81.1139 123.927 80.1543 122.242C78.9371 120.097 77.6726 117.982 76.3282 115.919C74.9486 113.798 73.5296 111.717 71.9088 109.762C70.697 108.301 69.404 106.913 68.1056 105.537C66.8182 104.173 65.3937 102.941 64.0196 101.662C62.7497 100.487 61.4052 99.4145 59.9752 98.4577C59.4061 98.0735 58.8029 97.7407 58.1647 97.351C58.9806 96.8178 59.734 96.3022 60.4117 95.6892C61.0949 95.0761 61.8252 94.52 62.4569 93.8544C62.8879 93.3957 63.3474 92.949 63.6413 92.3809C63.8825 91.9233 63.7959 91.7054 63.2903 91.55C62.7727 91.3901 62.2387 91.2752 61.6816 91.2861C61.4513 91.2927 61.1925 91.3551 60.9973 91.1548C59.2503 93.6256 57.0615 95.5687 54.3089 96.8868ZM50.5113 75.2362C50.9072 75.9697 51.2175 76.7371 51.4138 77.5406C51.7406 78.8696 52.017 80.2052 52.2462 81.5583C52.5686 83.4785 52.5686 85.4107 52.7232 87.3363C52.8208 88.5635 52.5916 89.7677 52.4414 90.9774C52.4074 91.2697 52.2637 91.5445 52.3964 91.9167C53.0226 91.3442 53.6718 90.8734 54.3089 90.3917C54.0282 90.0994 54.2804 89.7962 54.355 89.5433C55.0163 87.2509 55.3496 84.9235 55.2345 82.5326C55.2115 82.0345 55.2685 81.5244 55.206 81.0307C55.0338 79.6787 54.8836 78.3256 54.5677 76.9955C54.2749 75.7683 53.9755 74.5476 53.3724 73.4244C52.9359 72.622 52.5971 72.4895 51.7987 72.8858C51.132 73.2121 50.4707 73.5448 49.8105 73.8831C49.6208 73.9806 49.3905 74.0375 49.316 74.2783C49.7239 74.5706 50.2349 74.725 50.5113 75.2362ZM40.4036 87.795C40.6625 87.5027 40.6164 87.159 40.6975 86.8492C41.2426 84.7287 42.0069 82.699 43.1222 80.8073C43.2428 80.607 43.392 80.4067 43.392 80.1483C43.0992 80.1713 43.0246 80.4406 42.9094 80.63C41.996 82.1035 41.1285 83.5989 40.4618 85.1983C40.3872 85.3768 40.3357 85.5771 40.1229 85.6515C40.0648 86.3795 40.3291 87.0616 40.4036 87.795ZM43.6508 79.7476C43.3974 79.7761 43.3865 79.9534 43.392 80.1428C43.5762 80.0793 43.6563 79.9425 43.6508 79.7476ZM44.0532 79.0995C43.9491 79.151 43.9151 79.2484 43.9151 79.3568C44.0302 79.3053 44.0587 79.2145 44.0532 79.0995ZM43.9151 79.3568C43.8745 79.4093 43.8339 79.4542 43.7944 79.5068C43.8635 79.4772 43.903 79.4323 43.9151 79.3568Z" fill="#54AC5D"/>
<mask id="mask1_208_105" style="mask-type:luminance" maskUnits="userSpaceOnUse" x="20" y="18" width="127" height="164">
<path d="M20 18H146.014V181.818H20V18Z" fill="white"/>
</mask>
<g mask="url(#mask1_208_105)">
<path d="M38.3046 168.137C38.6493 169.609 39.4863 170.755 40.7872 171.54C41.727 172.106 42.8168 172.49 44.1122 172.708C45.1615 172.892 46.1812 173.046 47.4034 173.23C47.5981 173.258 47.8333 173.321 47.9537 173.528C48.4745 174.427 49.3925 174.731 50.3039 174.926C51.886 175.264 53.5545 175.287 55.257 175C56.1049 174.857 56.9769 174.742 57.8194 174.634C58.221 174.581 58.6159 174.53 59.0175 174.478C59.0809 174.468 59.1608 174.455 59.2297 174.455C59.6827 174.455 59.791 174.714 59.8206 174.868C59.849 175.023 59.8206 175.155 59.7462 175.257C59.6652 175.372 59.5219 175.447 59.3392 175.482C58.7822 175.567 58.2155 175.654 57.6531 175.728L57.5043 175.744C56.3227 175.9 55.0961 176.066 53.8871 176.209C53.56 176.249 53.2394 176.266 52.9232 176.266C52.1781 176.266 51.4735 176.174 50.8488 176.077C50.1605 175.969 49.375 175.848 48.6703 175.482C48.1309 175.206 47.701 174.937 47.3574 174.536C47.1616 174.301 46.9274 174.227 46.5893 174.163C46.1987 174.094 45.8037 174.038 45.4131 173.974C44.4394 173.825 43.4295 173.671 42.4612 173.384C41.6526 173.149 40.8966 172.823 40.2139 172.411C38.832 171.574 37.8637 170.32 37.3418 168.681C37.2674 168.452 37.1525 168.309 36.9348 168.165C31.9412 164.905 28.8175 160.132 27.6478 153.985C27.4006 152.718 27.3776 151.631 27.3896 151.092C27.3951 150.026 27.4235 149.207 27.5505 148.399C27.5844 148.199 27.6183 147.992 27.6872 147.804C27.7616 147.579 27.9629 147.46 28.1982 147.482C28.4619 147.512 28.6336 147.7 28.6512 147.963C28.6566 148.067 28.6446 148.158 28.6336 148.25C28.6282 148.291 28.6216 148.337 28.6161 148.376C27.894 155.028 30.1238 160.831 35.2553 165.632C35.9544 166.28 36.7739 166.882 37.7663 167.461C37.995 167.598 38.2193 167.769 38.3046 168.137ZM77.6668 160.334C77.7467 160.38 77.8266 160.401 77.9021 160.401C78.0509 160.401 78.1997 160.322 78.3091 160.162C78.4524 159.955 78.5728 159.732 78.6811 159.525C80.2577 156.374 81.0772 153.148 81.1232 149.918C81.1177 149.711 81.1177 149.505 81.1232 149.298C81.1232 149.018 81.1287 148.742 81.1122 148.468C80.9689 145.89 80.3321 143.626 79.1625 141.541C79.0542 141.353 78.9393 141.158 78.796 140.98C78.6122 140.751 78.3715 140.693 78.1483 140.831C77.8955 140.985 77.8266 141.226 77.9535 141.518C77.9874 141.604 78.0388 141.684 78.0848 141.765C79.8277 144.755 80.435 148.112 79.9371 152.026C79.6275 154.478 78.8474 156.919 77.6209 159.291C77.6034 159.33 77.5804 159.371 77.5574 159.411C77.5169 159.491 77.4721 159.566 77.4371 159.645C77.3288 159.927 77.4086 160.184 77.6668 160.334ZM88.8116 90.849C88.805 90.5744 88.7996 90.2987 88.805 90.0241V89.8402C88.805 89.4967 88.8116 89.1652 88.909 88.8326C89.0173 88.454 88.9713 88.059 88.7821 87.7089C88.6103 87.3883 88.3641 87.2745 87.991 87.3314C87.642 87.3883 87.2919 87.4693 86.9592 87.5546C86.4548 87.675 85.933 87.8008 85.4001 87.8292C85.0959 87.8413 84.7929 87.8927 84.4996 87.9332C84.1845 87.9846 83.8519 88.0306 83.5313 88.0415C82.121 88.07 80.4875 88.0995 78.8934 88.036L78.6636 88.024C78.0049 87.9956 77.3222 87.9671 76.6974 87.7844C76.2281 86.7242 76.239 85.6125 76.7204 84.1978L76.7664 84.0655C76.9841 83.4177 77.2139 82.7481 77.8561 82.3816C78.0848 82.4669 78.32 82.5698 78.5432 82.6737C78.9393 82.851 79.3463 83.0403 79.7873 83.1322C80.0455 83.1891 80.2916 83.1551 80.4755 83.0348C80.6418 82.9254 80.7512 82.7536 80.7906 82.5413C80.854 82.2262 80.8311 81.9691 80.7216 81.7448C80.3671 81.0063 80.0859 80.2218 79.8168 79.4592C79.633 78.9439 79.4437 78.4055 79.2314 77.8837C79.1625 77.7173 79.1056 77.5401 79.0476 77.3738C79.0192 77.2819 78.9907 77.1911 78.9568 77.0926C78.796 76.6517 78.6242 76.2107 78.4524 75.7753C78.1307 74.9503 77.7981 74.0914 77.5235 73.2369C77.4371 72.9678 77.2828 72.4645 76.715 72.4645C76.7095 72.4645 76.6974 72.4645 76.692 72.4645C76.4228 72.4699 76.1526 72.4349 75.8889 72.401C75.6657 72.3725 75.4359 72.3441 75.2072 72.3375C74.5705 72.3211 73.9173 72.2916 73.2871 72.2577C72.2203 72.2062 71.1196 72.1493 70.0364 72.1778C69.8417 72.1778 69.6458 72.1658 69.4576 72.1493C69.3712 72.1428 69.2848 72.1373 69.1994 72.1318C67.7891 72.0454 66.6424 72.0224 65.5877 72.0629C65.301 72.0738 65.0713 72.2008 64.9564 72.4119C64.8426 72.6297 64.8656 72.8988 65.0253 73.1461C65.1402 73.3179 65.2781 73.5356 65.4838 73.6264C65.8394 73.7697 66.1151 74.0334 66.3788 74.2796C66.5276 74.4229 66.6709 74.5553 66.8263 74.6702C66.7343 74.9733 66.6534 75.2829 66.5845 75.6155C66.5451 75.7928 66.4816 75.97 66.4247 76.1363C66.3328 76.388 66.2409 76.6462 66.2179 76.9329C66.1774 77.4077 66.0921 77.7458 65.9258 78.0554C65.7825 78.3082 65.7135 78.6233 65.731 78.8804C65.7474 79.2535 65.7026 79.631 65.6501 79.992C65.5932 80.4165 65.5418 80.852 65.5811 81.2875C65.5877 81.3498 65.5932 81.4297 65.5702 81.4757C65.312 82.0151 65.3809 82.5928 65.4674 83.0457C65.5363 83.4013 65.5472 83.7624 65.5593 84.1114C65.5647 84.3521 65.5702 84.5983 65.5986 84.8445C65.6041 84.9079 65.6041 84.9703 65.6041 85.0392C65.6041 85.1486 65.6041 85.2635 65.6337 85.3839C65.731 85.7964 65.8339 86.2023 65.9313 86.6148C66.0571 87.1246 66.184 87.6345 66.3044 88.1443C66.4127 88.6148 66.602 89.0612 66.7803 89.4912C66.8941 89.7658 67.021 90.0525 67.1118 90.3392C67.4335 91.2725 67.9554 92.0865 68.4598 92.871L68.5287 92.9749C68.8438 93.4673 69.2158 93.9257 69.578 94.3666C69.7038 94.522 69.8242 94.6708 69.9445 94.8251C70.4029 95.4039 70.9358 95.9083 71.3494 96.2803C71.8472 96.7332 72.3975 97.1457 72.926 97.5232C73.8374 98.1764 74.8462 98.7497 76.0038 99.2771C76.8014 99.6381 77.6953 99.9357 78.6472 100.159C79.7074 100.417 80.8201 100.577 81.9427 100.651C82.2983 100.674 82.6539 100.686 83.0095 100.686C84.0817 100.686 85.1933 100.589 86.3629 100.389C86.4778 100.371 86.5927 100.354 86.7131 100.336C87.2284 100.268 87.7569 100.193 88.2087 99.8099C88.3816 99.6666 88.5413 99.4828 88.5413 99.1567C88.5479 98.4576 88.5818 97.6895 88.6453 96.8251C88.6967 96.1599 88.6967 95.4783 88.6967 94.8251C88.6967 94.0515 88.6967 93.2441 88.7766 92.4585C88.8346 91.9322 88.8225 91.3819 88.8116 90.849ZM79.9142 162.888C79.7533 163.101 79.6045 163.295 79.4098 163.455C79.1516 163.667 79.1166 163.96 79.3233 164.229C79.4153 164.344 79.5301 164.413 79.6614 164.43C79.6789 164.43 79.6899 164.43 79.7074 164.43C79.8562 164.43 80.0116 164.361 80.1549 164.235C80.1888 164.206 80.2118 164.177 80.2577 164.12C81.9492 162.161 82.9121 160.454 83.376 158.586C83.5882 157.732 83.806 156.815 83.8979 155.727C83.8869 155.503 83.7381 155.262 83.4219 155.234C83.1243 155.205 82.9121 155.4 82.8486 155.767C82.8256 155.887 82.8147 156.007 82.7972 156.128C82.7863 156.202 82.7797 156.283 82.7687 156.358C82.3956 158.93 81.5357 160.969 80.1483 162.591C80.0684 162.676 79.9886 162.786 79.9142 162.888ZM72.0485 68.5048C72.5584 68.8374 73.0748 69.17 73.5847 69.5016C74.1011 69.8342 74.611 70.1723 75.1274 70.5049C75.5858 70.8025 76.0443 71.1001 76.4972 71.3988C77.6778 72.1712 78.8934 72.9678 80.1089 73.7304C80.2402 73.8157 80.3726 73.9076 80.4984 73.9995C80.9175 74.2971 81.3529 74.6122 81.9317 74.6527L81.9832 74.6582L82.0236 74.6297C82.6145 74.2347 82.8606 73.7019 82.7687 73.0487C82.7578 72.9568 82.7687 72.8474 82.8027 72.7216C83.1068 71.564 83.4449 70.2521 83.9953 69.0552C84.4832 67.9665 85.0215 66.9183 85.5949 65.9271C86.2032 64.8789 86.9133 63.939 87.5906 63.0791C87.9516 62.6206 88.3411 62.2256 88.7536 61.9105C89.0578 61.6819 89.1212 61.7103 89.3269 61.9565C89.6945 62.3974 90.049 62.8559 90.3992 63.3033L90.5655 63.509C91.1213 64.2257 91.6027 65.0102 92.0732 65.7662C92.2909 66.1163 92.5032 66.4654 92.7264 66.8089C93.1334 67.4337 93.1225 67.7542 92.687 68.1328C92.6235 68.1788 92.6115 68.2477 92.6115 68.2926C92.4572 68.5508 92.3084 68.8145 92.1596 69.0781C91.8095 69.6963 91.443 70.3386 90.99 70.9108C90.7832 71.1745 90.7197 71.5016 90.8171 71.7883C90.9156 72.0629 91.1388 72.2577 91.4364 72.3321C91.827 72.424 92.1191 72.4119 92.3084 72.2981C92.687 72.0859 93.094 72.0684 93.5174 72.0509C93.6903 72.0454 93.8621 72.0399 94.0284 72.017C94.4584 71.971 94.8938 71.9086 95.3293 71.8506C95.8227 71.7817 96.3096 71.7194 96.8031 71.6679C97.2101 71.6274 97.6105 71.576 98.0176 71.5246C98.8031 71.4272 99.6172 71.3298 100.42 71.2894C100.461 71.2894 100.5 71.2894 100.541 71.2894C100.678 71.2894 100.85 71.2894 100.999 71.181C101.222 71.0202 101.441 71.0257 101.682 71.1975C101.877 71.3298 102.174 71.4042 102.489 70.9918C102.662 70.762 102.742 70.4928 102.737 70.1602C102.73 69.937 102.753 69.7477 102.868 69.5596C102.965 69.3987 103.006 69.2149 103.046 69.0377C103.063 68.9687 103.075 68.8998 103.092 68.8374C103.189 68.4873 103.252 68.1208 103.315 67.7718C103.344 67.6175 103.367 67.4621 103.402 67.3078L103.43 67.17C103.567 66.4763 103.705 65.7553 103.986 65.0966C104.02 65.0102 104.02 64.9237 104.014 64.8493C104.014 64.8154 104.009 64.7749 104.014 64.7465L104.124 64.2082C104.261 63.5375 104.398 62.8383 104.582 62.1687C104.657 61.8876 104.708 61.5954 104.473 61.3088C104.239 61.0396 103.94 61.1085 103.676 61.172C103.453 61.2234 103.235 61.3088 103.023 61.3952C102.776 61.4926 102.53 61.5954 102.261 61.6414C101.447 60.4728 100.633 59.3382 99.6347 58.324C98.6204 57.2868 97.4224 56.5252 96.1838 55.7801C94.8938 55.0066 93.489 54.5427 91.769 54.0843C90.7723 53.8206 89.6486 53.6772 88.4385 53.6488C87.4636 53.6324 86.5643 53.6663 85.6868 53.7527C84.5347 53.8665 83.3596 54.1247 82.19 54.5142C80.7796 54.9836 79.6439 55.4935 78.6297 56.1182C77.8496 56.5942 77.0355 57.127 76.3254 57.8087C75.2817 58.8054 74.5245 59.7398 73.9578 60.742C73.321 61.8646 72.7881 63.1141 72.3297 64.5572C72.2717 64.729 72.2148 64.9008 72.1634 65.0791C71.9282 65.7947 71.682 66.5398 71.5901 67.3243C71.4982 67.995 71.5036 68.1503 72.0485 68.5048ZM102.025 72.1034C101.447 72.4349 100.873 72.7621 100.288 73.0881C99.9443 73.2829 99.6008 73.4776 99.2627 73.6789C98.3732 74.1997 97.4508 74.7326 96.488 75.1451C96.3096 75.2195 95.7768 75.4492 95.8457 76.016C95.8917 76.377 95.954 76.83 96.4705 77.0871C96.9398 77.3169 97.4278 77.5806 97.8064 77.9351C98.8721 78.9318 99.6347 79.7458 100.265 80.5653C100.804 81.27 101.424 82.1004 101.894 83.0173C102.094 83.4068 102.272 83.8193 102.444 84.2208C102.512 84.386 102.588 84.5523 102.662 84.7241C103.017 85.5152 103.138 86.1968 103.046 86.8609C100.781 87.4977 98.5515 87.5437 96.6368 87.4977V86.8161C96.6368 86.1454 96.6313 85.4977 96.6423 84.851C96.6532 84.3401 96.3611 83.8827 95.9365 83.7503C95.4212 83.5961 95.1575 83.9112 94.9507 84.2722L93.2997 87.1246C93.2198 87.268 93.1334 87.4113 93.048 87.5491C92.8817 87.8238 92.7034 88.1104 92.5666 88.4146C92.2734 89.0558 91.8894 89.6685 91.5228 90.2648C91.3675 90.5164 91.2077 90.7692 91.0589 91.0263C90.8467 91.3819 90.6519 91.7484 90.4681 92.104C90.2219 92.5734 89.9637 93.0603 89.6716 93.5132C89.5512 93.6905 89.5217 93.8852 89.5797 94.057C89.642 94.2518 89.8149 94.4017 90.0611 94.487C90.2383 94.5505 90.3882 94.6074 90.4561 94.7397C90.6519 95.0997 90.909 95.3984 91.1672 95.684C91.316 95.8568 91.4714 96.0341 91.6093 96.2168C91.9123 96.6359 92.222 97.0538 92.5316 97.4718C93.048 98.1709 93.5864 98.893 94.0908 99.6206C94.2691 99.8723 94.4638 100.113 94.6586 100.348C95.0251 100.801 95.3753 101.225 95.605 101.74C95.7024 101.964 95.8742 102.062 96.0284 102.152C96.0689 102.175 96.1028 102.198 96.1379 102.221C96.2352 102.285 96.3501 102.319 96.4705 102.319C96.5733 102.319 96.6762 102.296 96.7801 102.25C97.0033 102.147 97.1466 101.964 97.1696 101.752C97.1871 101.591 97.2156 101.437 97.244 101.282C97.2954 101.012 97.3469 100.732 97.3305 100.434L97.3239 100.325C97.3075 100.148 97.2954 99.9817 97.3534 99.8099C97.5197 99.8438 97.697 99.8788 97.8863 99.8843C98.0066 99.8898 98.1324 99.8843 98.2594 99.8788C98.6139 99.8668 98.953 99.8559 99.2616 100.062C99.4345 100.182 99.7671 100.148 99.9334 100.033C100.116 99.9073 100.311 99.8953 100.541 99.8898C100.633 99.8843 100.718 99.8843 100.81 99.8723L101.177 99.8263C101.877 99.7465 102.599 99.6611 103.264 99.3745C103.447 99.2935 103.63 99.2191 103.814 99.1447C104.365 98.9215 104.938 98.6862 105.46 98.3657C106.881 97.5177 108.091 96.5155 109.169 95.2945C109.61 94.7966 109.976 94.2463 110.326 93.7189C110.436 93.5592 110.544 93.3929 110.654 93.232C111.072 92.6193 111.662 91.6915 111.967 90.6773C112.064 90.3446 112.172 90.0186 112.282 89.686C112.448 89.1706 112.62 88.6378 112.763 88.105C113.153 86.6728 113.227 85.1946 113.25 83.9451C113.278 82.2437 113.124 80.6222 112.786 79.1266C112.751 78.9843 112.723 78.841 112.694 78.6977C112.625 78.3541 112.551 78.004 112.441 77.6659C112.351 77.3738 112.23 77.0937 112.115 76.818C111.96 76.4514 111.8 76.0729 111.714 75.6779C111.673 75.5182 111.622 75.3343 111.514 75.203C111.227 74.865 111.043 74.4744 110.843 74.0619C110.728 73.8332 110.613 73.5925 110.482 73.3638C109.679 72.0115 108.899 70.9688 108.022 70.0749C107.46 69.5016 106.904 69.3987 106.267 69.7543C105.935 69.937 105.591 70.1208 105.253 70.2981C104.846 70.5103 104.444 70.7226 104.049 70.9458C103.367 71.3353 102.696 71.7194 102.025 72.1034ZM145.858 30.3428C145.721 30.4862 145.497 30.5146 145.159 30.5146C144.678 30.5146 144.191 30.5026 143.703 30.4971C143.313 30.4916 142.924 30.4862 142.533 30.4796C141.931 30.4687 141.88 30.5256 141.811 31.1273L141.421 34.4447C141.186 36.4557 140.951 38.4667 140.71 40.4777C140.551 41.8301 140.384 43.1758 140.218 44.5282C140.006 46.247 139.793 47.9714 139.593 49.6902C139.427 51.0885 139.272 52.4803 139.117 53.8786C138.997 54.9672 138.877 56.0613 138.75 57.1555C138.583 58.5877 138.417 60.0199 138.251 61.4466C138.084 62.8734 137.919 64.3001 137.758 65.7268C137.62 66.9468 137.483 68.1667 137.351 69.3878C137.247 70.3156 137.15 71.2379 137.047 72.1603C136.909 73.3977 136.766 74.6297 136.623 75.8617C136.479 77.0926 136.336 78.3246 136.193 79.562C136.09 80.4559 135.992 81.3444 135.895 82.2383C135.798 83.1026 135.706 83.9626 135.608 84.8281C135.465 86.1115 135.316 87.3883 135.166 88.6663C135.03 89.8753 134.886 91.0843 134.754 92.2933C134.657 93.1467 134.565 94.0001 134.467 94.8535C134.37 95.7135 134.278 96.5669 134.181 97.4258C134.049 98.5779 133.917 99.7235 133.786 100.876C133.671 101.889 133.55 102.903 133.435 103.917L133.2 106.008C133.046 107.412 132.891 108.816 132.731 110.219C132.57 111.629 132.409 113.044 132.243 114.454L131.991 116.647C131.894 117.513 131.796 118.378 131.705 119.249C131.561 120.526 131.423 121.804 131.275 123.082C131.131 124.342 130.988 125.603 130.839 126.863C130.741 127.699 130.643 128.542 130.546 129.379C130.374 130.908 130.202 132.438 130.036 133.967L129.99 134.38C129.91 135.084 129.829 135.789 129.744 136.499L129.629 137.496C129.612 137.634 129.601 137.72 129.634 137.811C131.595 138.631 133.04 139.41 134.307 140.338C135.798 141.415 137.076 142.653 138.228 144.113C139.335 145.517 140.241 147.138 140.928 148.932C141.57 150.61 141.966 152.398 142.115 154.249C142.258 156.082 142.133 157.91 141.731 159.686C139.873 167.959 132.972 173.923 124.561 174.524C124.108 174.559 123.661 174.57 123.214 174.57C114.712 174.57 107.145 168.824 104.886 160.47C103.584 160.401 91.316 160.396 89.9232 160.465C89.9057 160.672 89.8893 160.883 89.8718 161.09C89.8204 161.697 89.7744 162.327 89.7 162.945C89.3729 165.781 88.7427 168.274 87.7733 170.56C86.6616 173.179 84.9876 175.326 82.7972 176.937C82.3956 177.235 81.9372 177.463 81.4963 177.688L81.3529 177.755C78.8244 179.039 76.0267 179.961 72.7881 180.58C68.5451 181.388 64.2004 181.8 59.849 181.8C59.1149 181.8 58.3807 181.789 57.6476 181.766C54.3685 181.657 51.4275 181.371 48.6474 180.878C48.3607 180.827 48.0741 180.781 47.7874 180.741C47.1736 180.649 46.5368 180.552 45.9296 180.386C43.6877 179.766 41.0684 178.953 38.6602 177.635C35.7827 176.054 33.2137 174.146 31.0298 171.963C29.0122 169.941 27.2113 167.489 25.5318 164.469C23.1411 160.173 21.5251 155.595 20.722 150.863C20.373 148.795 20.1892 146.577 20.1378 143.679C20.0284 138.413 20.8085 133.063 22.5219 127.315C24.9705 119.111 28.8284 111.48 33.9938 104.627C35.3406 102.834 36.9293 101.064 38.9873 99.0528L39.0563 98.9849C39.1132 98.927 39.1701 98.8755 39.2226 98.8132C39.2105 98.8132 39.1996 98.8132 39.193 98.8186C39.1701 98.8241 39.1416 98.8241 39.1186 98.8241C37.2553 98.9105 35.4096 98.5265 33.4664 97.6501C30.6797 96.3897 28.4728 94.5505 26.9027 92.1839C26.4323 91.4792 26.0537 90.6597 25.6981 89.6116C25.6128 89.3599 25.6062 89.1936 25.6751 89.0558C25.7616 88.884 25.9454 88.7921 26.22 88.7002L26.4498 88.6203C27.103 88.3916 27.7737 88.1564 28.4848 88.0131C29.7114 87.7723 30.9838 87.8008 32.3712 88.0929C34.4292 88.535 36.4249 89.2396 38.3101 90.1849C38.8604 90.4595 39.3484 90.7462 39.8298 91.0722L39.8014 90.7112C39.7609 90.1444 39.7204 89.617 39.6745 89.0897C39.5202 87.3544 39.3593 85.618 39.1996 83.8827L39.1241 83.0972C38.9359 81.0577 38.7521 79.0183 38.5683 76.9788C38.4939 76.1363 38.425 75.2939 38.3506 74.4459C38.2816 73.6155 38.2127 72.785 38.1383 71.9601C38.03 70.6187 37.9031 69.2674 37.7772 67.9206C37.6514 66.5343 37.519 65.148 37.3987 63.7673C37.3013 62.7016 37.2094 61.6359 37.1186 60.5702C37.0267 59.5045 36.9348 58.4443 36.8429 57.3841C36.717 55.9869 36.5912 54.5886 36.4643 53.1849C36.3385 51.8041 36.2126 50.4288 36.0857 49.048C35.9884 47.9944 35.903 46.9407 35.8111 45.8914C35.7192 44.8378 35.6273 43.7831 35.5354 42.7294C35.4325 41.5718 35.3242 40.4143 35.2203 39.2578C35.0715 37.6363 34.9172 36.0148 34.7793 34.3933L34.7443 33.9578C34.6535 32.8637 34.555 31.7346 34.3603 30.6404C34.252 30.0277 34.1196 29.9074 33.5299 29.9074C32.6808 29.9019 31.8263 29.8953 30.9729 29.8953C30.1184 29.8899 29.2639 29.8844 28.4159 29.8844H28.3185C28.2146 29.8844 28.1117 29.8844 28.0089 29.8789C27.6074 29.8494 27.3951 29.6207 27.4071 29.2312C27.4181 28.7159 27.4531 28.1885 27.487 27.6841C27.5439 26.7049 27.5844 25.7366 27.6183 24.7967C27.6358 24.3153 27.6588 23.8284 27.6763 23.347C27.7332 22.0866 27.8021 20.8207 27.871 19.5602L27.8765 19.5088C27.8885 19.348 27.894 19.2561 27.8141 19.1762C27.6872 19.0504 27.6249 18.9071 27.6249 18.7583C27.6249 18.6379 27.6763 18.5285 27.7682 18.4431L27.8021 18.4081C27.9859 18.2364 28.2605 17.9727 28.6161 18.1455C28.8689 18.2659 29.1271 18.2539 29.4017 18.2484C29.4816 18.2429 29.568 18.2429 29.6479 18.2429C67.8514 18.2484 106.055 18.2484 144.26 18.2429C145.481 18.2429 145.561 18.3742 145.589 19.2736L145.658 21.2277C145.727 23.0669 145.796 24.9685 145.893 26.8416C145.927 27.4379 145.945 28.0342 145.968 28.6294C145.979 28.973 145.991 29.3111 146.008 29.6546C146.019 29.9763 145.996 30.1995 145.858 30.3428ZM40.6329 93.0723C39.9502 92.1609 38.9873 91.5996 38.0464 91.1237C36.1842 90.1783 34.3318 89.5087 32.3766 89.0787C30.823 88.7352 29.3448 88.7516 27.8535 89.1356C27.475 89.233 27.0855 89.3534 26.7933 89.5711C26.7758 89.6685 26.8043 89.7429 26.8393 89.8348C27.2113 90.849 27.7222 91.7539 28.37 92.5449C30.3416 94.9509 32.8296 96.6008 35.7706 97.4433C37.4796 97.9357 38.7926 98.0101 40.0246 97.684C40.088 97.6665 40.1504 97.661 40.2084 97.661C40.3463 97.661 40.4666 97.695 40.5574 97.7355C41.3321 98.0276 42.134 98.091 42.9546 98.137C44.5302 98.2169 46.1648 98.137 47.9537 97.8897C49.759 97.6381 51.3356 97.2945 52.7799 96.8416C52.8149 96.8306 52.8488 96.8186 52.8838 96.8131C53.0381 96.7726 53.13 96.7442 53.1705 96.6413C53.2733 96.3667 53.4801 96.2288 53.8062 96.2234C53.944 96.2168 54.0699 96.1544 54.2077 96.0855C54.2591 96.0571 54.3106 96.0341 54.362 96.0111C56.0885 95.2201 57.687 93.9771 59.3961 92.092C59.9694 91.4617 60.4278 90.7341 60.7659 89.9322C60.9377 89.5251 61.116 89.0448 61.0701 88.4824C60.7834 88.4201 60.5307 88.466 60.2385 88.5568C59.4759 88.7921 58.7429 89.1017 58.0601 89.3993C55.9386 90.3392 54.2132 91.4792 52.7919 92.9005C52.6486 93.0438 52.5107 93.2036 52.3794 93.359C52.2875 93.4673 52.1956 93.5767 52.0982 93.6795C51.886 93.9082 51.6278 93.9542 51.3871 93.7999C51.1179 93.6215 51.1923 93.3524 51.2437 93.1751C51.8915 90.7976 52.1322 88.5743 51.9779 86.3686C51.9494 85.9911 51.9265 85.6125 51.9035 85.2285C51.8225 83.9801 51.7427 82.6847 51.5359 81.4363C51.3127 80.1014 51.0151 78.5314 50.5096 77.0018C50.3433 76.4974 50.1715 76.1079 49.9713 75.7753C49.7645 75.4427 49.4898 75.237 49.1857 75.203C48.8881 75.168 48.5784 75.2939 48.3027 75.563C47.7699 76.0959 47.2075 76.6692 46.7151 77.2819C43.4131 81.4067 41.6297 85.4977 41.2631 89.7833C41.1657 90.9289 41.2577 91.7834 41.5443 92.5504C41.6067 92.7287 41.7336 93.0548 41.401 93.2441C41.1253 93.4038 40.8277 93.336 40.6329 93.0723ZM40.2314 99.6611C39.8758 99.6611 39.623 99.8263 39.32 100.118C36.9982 102.354 34.8417 104.926 32.916 107.773C27.7912 115.341 24.1959 123.712 22.2188 132.644C21.7833 134.603 21.4617 136.683 21.2614 138.832C21.1061 140.464 21.1236 142.132 21.1345 143.741L21.1411 144.177C21.1695 147.815 21.6564 151.344 22.5799 154.678C24.6488 162.127 28.2212 168.056 33.4948 172.818C36.31 175.361 39.4917 177.258 42.9371 178.46C43.5564 178.678 44.261 178.925 44.9547 179.079C45.4077 179.182 45.8781 179.263 46.3311 179.337C46.853 179.423 47.3858 179.515 47.9077 179.641C49.8684 180.116 51.8116 180.426 53.6913 180.568C55.9156 180.729 58.5536 180.895 61.2079 180.844C61.5974 180.821 61.9924 180.798 62.383 180.781C66.1895 180.637 69.8646 180.173 73.321 179.405C76.9611 178.592 79.9601 177.417 82.4876 175.82L82.6429 175.721C82.8092 175.619 82.9755 175.516 83.1298 175.395C84.0926 174.65 84.9362 173.682 85.7043 172.434C87.3553 169.769 88.3291 166.595 88.7766 162.453C88.9888 160.516 89.0403 158.454 88.9319 156.133C88.8455 154.329 88.6508 152.461 88.3356 150.427C87.8313 147.133 86.8969 143.724 85.3137 139.365L85.0959 138.751C84.7404 137.76 84.3793 136.734 83.9384 135.778C83.2786 134.339 82.7118 133.068 82.2075 131.893C81.1352 129.401 79.8912 127.007 78.5038 124.771C75.9644 120.698 73.0748 116.745 69.6863 112.678C65.5932 107.767 61.9355 104.004 58.163 100.823C56.9025 99.7585 55.7045 98.8646 54.5053 98.0856C54.2712 97.9357 54.1213 97.8897 53.8871 98.0331C53.4911 98.2967 53.0326 98.4401 52.5906 98.5779C50.212 99.3165 47.5861 99.741 44.5652 99.8723L44.1582 99.8898C42.9886 99.9467 41.773 100.005 40.6099 99.706C40.4666 99.6775 40.3462 99.6611 40.2314 99.6611ZM86.4034 139.342C87.4122 142.086 88.2153 144.853 88.7821 147.563C89.0523 148.875 89.3269 150.29 89.4878 151.745L89.5512 152.306C89.6595 153.263 89.7624 154.22 89.8543 155.177C89.9517 156.243 89.9582 157.326 89.9692 158.369C89.9692 158.631 89.9746 158.901 89.9746 159.171C89.9746 159.217 89.9746 159.256 90.0436 159.319H93.7702C96.5099 159.365 99.3021 159.314 102.002 159.268C102.816 159.25 103.636 159.238 104.45 159.227C104.519 159.227 104.554 159.227 104.577 159.217C103.487 152.083 105.488 146.159 110.539 141.604C115.578 137.055 121.655 135.646 128.585 137.411L128.683 136.62C128.758 135.984 128.832 135.366 128.901 134.752C128.946 134.357 128.987 133.962 129.027 133.566C129.084 133.028 129.136 132.495 129.199 131.956C129.279 131.229 129.365 130.501 129.452 129.774C129.532 129.074 129.612 128.375 129.692 127.683C129.76 127.076 129.824 126.474 129.893 125.866C129.967 125.196 130.041 124.525 130.116 123.855C130.197 123.139 130.282 122.423 130.363 121.707C130.443 120.997 130.529 120.285 130.609 119.575C130.65 119.214 130.689 118.86 130.73 118.499C130.787 117.948 130.85 117.398 130.914 116.842C130.976 116.263 131.05 115.686 131.119 115.107C131.211 114.328 131.308 113.542 131.389 112.758C131.48 111.972 131.561 111.182 131.647 110.391C131.698 109.881 131.756 109.371 131.813 108.862C131.922 107.905 132.031 106.953 132.146 105.997L132.312 104.582C132.363 104.14 132.409 103.694 132.455 103.247C132.507 102.76 132.558 102.273 132.616 101.791C132.696 101.093 132.777 100.4 132.857 99.7005C132.937 98.9959 133.023 98.2858 133.103 97.5746C133.154 97.1227 133.2 96.6643 133.252 96.2113C133.304 95.7595 133.349 95.301 133.402 94.8481C133.481 94.1434 133.561 93.4443 133.642 92.7397C133.722 92.0405 133.809 91.3359 133.888 90.6368C133.94 90.1849 133.986 89.7265 134.037 89.2735C134.089 88.8205 134.135 88.3621 134.186 87.9102C134.262 87.245 134.341 86.5808 134.416 85.9156C134.502 85.1771 134.588 84.432 134.674 83.688C134.748 83.0403 134.817 82.3871 134.886 81.7393C134.955 81.0916 135.03 80.4395 135.104 79.7918C135.173 79.201 135.242 78.6167 135.316 78.0325C135.408 77.2819 135.499 76.5313 135.58 75.7753C135.654 75.1276 135.723 74.4744 135.792 73.8277C135.86 73.157 135.936 72.4863 136.01 71.8167C136.095 71.0432 136.187 70.2751 136.279 69.5081C136.394 68.5278 136.514 67.5485 136.623 66.5682C136.686 66.019 136.743 65.4686 136.796 64.9183C136.875 64.1393 136.955 63.3318 137.059 62.5407C137.208 61.4696 137.316 60.3755 137.42 59.3153C137.5 58.4794 137.587 57.6194 137.689 56.7714C137.781 56.0329 137.867 55.2878 137.953 54.5427C138.005 54.0733 138.061 53.6094 138.114 53.1389C138.268 51.7866 138.435 50.4353 138.595 49.083L138.606 48.9911C138.641 48.7219 138.67 48.4528 138.704 48.1836C138.79 47.4954 138.877 46.7799 138.939 46.0807C138.974 45.6858 139.025 45.2962 139.071 44.9067C139.151 44.2765 139.231 43.6233 139.249 42.9756V42.9297L139.277 42.8892C139.295 42.8728 139.307 42.8553 139.323 42.8323C139.335 42.8213 139.351 42.7984 139.358 42.7918C139.455 42.0073 139.553 41.2108 139.645 40.4143L139.735 39.5838C139.799 38.9996 139.868 38.4098 139.937 37.8245C140.052 36.8573 140.177 35.889 140.303 34.9207C140.338 34.622 140.378 34.3244 140.424 34.0213C140.505 33.4075 140.59 32.7718 140.641 32.1471C140.653 31.9643 140.687 31.7751 140.722 31.5978C140.779 31.2827 140.831 30.9895 140.785 30.6973C140.648 30.6525 140.521 30.658 140.395 30.6634C140.355 30.6634 140.315 30.6634 140.275 30.6634C137.466 30.6295 134.611 30.6295 131.848 30.6229C128.769 30.6229 125.587 30.6175 122.457 30.5715C116.936 30.4862 111.318 30.4916 105.883 30.5026C100.535 30.5091 95.0022 30.5201 89.5676 30.4347C84.236 30.3483 78.8135 30.3593 73.5737 30.3713C68.2475 30.3822 62.7441 30.3943 57.3325 30.3078C52.3039 30.228 47.1911 30.2455 42.2489 30.2619C40.1799 30.2684 38.1044 30.2739 36.0343 30.2739C35.9949 30.2739 35.949 30.2739 35.9085 30.2684C35.7827 30.2619 35.6678 30.2564 35.5813 30.3078C35.5474 30.3943 35.5474 30.4916 35.5529 30.6065V30.658C35.519 31.0934 35.5649 31.5059 35.6164 31.9348C35.6393 32.1591 35.6678 32.3823 35.6787 32.6055C35.7137 33.1952 35.7706 33.7915 35.8286 34.3648C35.8855 34.983 35.949 35.6187 35.9829 36.2555C36.0343 37.1199 36.1262 37.9973 36.2126 38.8453C36.2586 39.2797 36.3046 39.7151 36.3439 40.1506C36.3954 40.7239 36.4413 41.2972 36.4873 41.8694C36.5332 42.4482 36.5792 43.027 36.6306 43.6004C36.6995 44.3848 36.7739 45.1639 36.8483 45.9494C36.8998 46.4648 36.9457 46.9856 36.9982 47.502C37.0497 48.0688 37.0956 48.6421 37.1416 49.2088C37.1864 49.7931 37.2389 50.3719 37.2904 50.9507C37.3473 51.5918 37.4107 52.2396 37.4731 52.8818C37.5365 53.5175 37.5934 54.1477 37.6514 54.7834C37.6974 55.2933 37.7368 55.8086 37.7827 56.3185C37.8352 56.9782 37.8921 57.6369 37.949 58.301C38.007 58.9137 38.0639 59.5275 38.1219 60.1402C38.1843 60.7825 38.2422 61.4236 38.3046 62.0714C38.3681 62.7475 38.4195 63.4292 38.4764 64.1053C38.5169 64.6207 38.5574 65.136 38.6033 65.6513C38.6602 66.2761 38.7171 66.9063 38.7806 67.5365C38.8375 68.1667 38.9009 68.7969 38.9589 69.4217C39.0158 70.0235 39.0617 70.6252 39.1132 71.2259C39.1591 71.8222 39.2105 72.4119 39.262 73.0028C39.3134 73.598 39.3769 74.1943 39.4338 74.7895C39.4917 75.3858 39.5541 75.9821 39.6121 76.5773C39.6635 77.1965 39.7149 77.8092 39.7609 78.4285C39.8123 79.0522 39.8583 79.6715 39.9163 80.2962C40.076 82.0949 40.2478 83.8937 40.4207 85.6924C40.3911 86.1509 40.4721 86.5633 40.564 87.0043C40.587 87.1192 40.6099 87.234 40.6329 87.3544C40.6439 87.2909 40.6548 87.2286 40.6614 87.1651C40.6723 87.0623 40.6898 86.9649 40.7128 86.8675C41.3091 84.5523 42.1056 82.5643 43.1494 80.794L43.2008 80.7087C43.3037 80.5424 43.401 80.387 43.401 80.2043V80.1069L43.493 80.0719C43.6133 80.027 43.6647 79.9515 43.6593 79.8148V79.7338L43.7282 79.689C43.7687 79.666 43.7851 79.6255 43.8081 79.5281L43.8201 79.4712L43.8715 79.4417C43.9175 79.4132 43.9175 79.4023 43.9229 79.3848L43.935 79.3104L44.0028 79.2765C44.0324 79.2644 44.0608 79.2469 44.0553 79.1561V79.1036L44.5192 78.4964C45.6309 77.0248 46.5313 75.9361 47.4373 74.9733C48.0511 74.3201 48.6922 74.0684 49.4614 74.1822L49.5128 74.2227C49.6277 74.3091 49.7535 74.377 49.8739 74.4525C50.1999 74.6407 50.5391 74.842 50.7514 75.237C51.1693 76.0105 51.4735 76.795 51.6628 77.574C51.9834 78.8804 52.2645 80.2382 52.4932 81.6026C52.711 82.9024 52.7799 84.2318 52.8543 85.5152C52.8893 86.1333 52.9232 86.7701 52.9746 87.3938C53.0556 88.3916 52.9177 89.3884 52.7864 90.3446C52.7514 90.5854 52.723 90.8206 52.6945 91.0613C52.6825 91.1466 52.6661 91.2276 52.6486 91.3129C52.6201 91.4453 52.5906 91.5712 52.5972 91.7079C53.0786 91.2845 53.5775 90.9125 54.0589 90.5514L54.3335 90.3446C55.6235 89.4573 57.0513 88.7122 58.6903 88.082C59.4529 87.7844 60.2046 87.5141 61.0296 87.4233C61.3108 87.3938 61.5405 87.4463 61.7057 87.5896C61.8786 87.7319 61.976 87.9496 62.0044 88.2417C62.0504 88.7122 62.0274 89.1247 61.9246 89.5142C61.8152 89.9322 61.6379 90.3217 61.4596 90.6948C61.3677 90.8895 61.2823 91.0777 61.2014 91.2725C59.4365 93.8054 57.2286 95.7244 54.6377 96.9969C54.7296 97.0877 54.827 97.1512 54.9353 97.2146L55.0272 97.2715C56.9934 98.5265 58.9486 100.09 61.0186 102.05C62.9279 103.866 65.4159 106.295 67.7377 108.954C69.102 110.524 70.5124 112.139 71.8472 113.783C73.6022 115.943 75.3736 118.332 77.2533 121.088C78.3999 122.772 79.5126 124.548 80.6538 126.531C81.7479 128.439 82.5455 130.043 83.1583 131.578C83.2556 131.819 83.3366 132.071 83.4165 132.312C83.5313 132.661 83.6462 133.022 83.8125 133.343C84.7808 135.297 85.6583 137.319 86.4034 139.342ZM119.608 29.3341C124.773 29.403 130.025 29.403 135.109 29.3975C136.359 29.3975 137.61 29.3975 138.859 29.3975C140.006 29.3975 141.146 29.3975 142.292 29.403C142.653 29.403 143.016 29.4314 143.347 29.4664C143.955 29.5288 144.442 29.5288 144.878 29.4599C144.976 28.1601 144.649 20.5395 144.448 19.3195H28.9148L28.7595 22.6019C28.6621 24.6764 28.5647 26.7388 28.4673 28.7958C28.6282 28.8592 28.7649 28.8526 28.9083 28.8472C28.9488 28.8472 28.9947 28.8417 29.0352 28.8417C31.695 28.8702 34.3953 28.8756 37.0092 28.8811C40.2139 28.8877 43.5334 28.8931 46.795 28.95C50.8827 29.0135 55.0447 29.019 59.0689 29.019C62.9957 29.019 67.0549 29.0244 71.0452 29.0824C75.0869 29.1448 79.1975 29.1448 83.1758 29.1513C87.1485 29.1513 91.2537 29.1513 95.2954 29.2137C99.4509 29.2772 103.676 29.2772 107.769 29.2826C111.65 29.2826 115.664 29.2826 119.608 29.3341Z" fill="#44434F"/>
</g>
<path d="M123.384 144.224C116.967 144.224 111.763 149.423 111.763 155.845C111.763 162.266 116.962 167.465 123.384 167.465C129.805 167.465 135.004 162.266 135.004 155.845C135.004 149.423 129.8 144.224 123.384 144.224Z" fill="#646273"/>
</svg>
